<svg xmlns="http://www.w3.org/2000/svg" width="19" height="21" viewBox="0 0 19 21" fill="none"><path d="M14.0805 11.3544C13.5896 9.61307 12.365 7.89757 10.5397 6.39297C10.3633 6.24862 10.1362 6.18456 9.92234 6.21243C9.69605 6.23781 9.49471 6.35262 9.35495 6.53648C9.2185 6.71826 9.16235 6.94996 9.20103 7.17085C9.42483 8.47744 9.50137 9.63678 9.42233 10.5236C9.34746 11.341 9.15236 11.8273 8.99387 12.0099C8.92524 12.0898 8.89903 12.1031 8.89903 12.104C8.89695 12.1069 8.85452 12.104 8.72723 12.0486C8.40526 11.9105 7.96641 11.455 7.58038 10.8589C7.43437 10.6351 7.18728 10.4958 6.87779 10.4854C6.63278 10.4854 6.39234 10.606 6.23011 10.8132C4.39938 13.2816 4.85238 15.0932 5.28542 15.9543C5.87361 17.119 6.87488 17.6456 6.8807 17.6456C7.01964 17.7438 7.18436 17.7962 7.35658 17.7962C7.49801 17.7962 7.63861 17.7596 7.7659 17.6889C8.04087 17.5316 8.20435 17.2255 8.18188 16.9093C8.159 16.5924 7.95809 16.3162 7.70642 16.2221C7.68146 16.208 7.08786 15.8677 6.76048 15.218C6.41771 14.5383 6.49841 13.7076 6.99842 12.745C7.36906 13.1493 7.71765 13.4151 8.07747 13.5703C8.84038 13.8989 9.71102 13.708 10.241 13.0931C10.7011 12.5599 10.9731 11.7649 11.0721 10.6638C11.1062 10.2878 11.1112 9.86515 11.0863 9.36722C11.8042 10.2154 12.2635 11.0157 12.4831 11.7978C12.9315 13.3927 12.6029 14.9168 11.4789 16.4584C11.2094 16.827 11.2901 17.3461 11.657 17.614C11.8358 17.7471 12.0563 17.7995 12.2743 17.7663C12.4939 17.733 12.6869 17.6148 12.8176 17.4351C14.2219 15.5141 14.6587 13.4118 14.0805 11.3544Z" fill="#111111"></path><path d="M8.9668 0.154437C8.80997 0.042955 8.61405 -0.0107063 8.44682 0.00177299L8.34616 0.00884474C7.97801 0.0749855 7.70056 0.382394 7.67185 0.753032C7.43724 3.37994 5.92557 5.13746 4.32322 7.00063L4.26041 7.07467C2.65972 8.93452 0.845215 11.0423 0.845215 14.2645C0.845215 16.2229 1.65263 18.0083 3.11813 19.292C4.33611 20.3586 5.90436 20.9958 7.31536 20.9958C7.62027 20.9917 7.88234 20.8428 8.03708 20.5824C8.18226 20.3269 8.18143 20.0091 8.03251 19.7504C7.88317 19.4991 7.61029 19.3427 7.3137 19.3427C6.32117 19.3427 5.1011 18.8352 4.20591 18.0499C3.4272 17.3677 2.49957 16.1572 2.49957 14.2645C2.49957 11.6588 4.0337 9.87297 5.51916 8.14416C6.88773 6.5522 8.42977 4.75891 9.04417 2.24432C14.0821 5.90868 16.9623 9.96698 16.9623 13.4204C16.9623 16.3768 15.1528 18.7071 13.4531 19.3976C13.2468 19.4792 13.0846 19.6364 12.9956 19.8427C12.9082 20.0466 12.9057 20.2729 12.9889 20.48C13.1145 20.7912 13.4257 21 13.7618 21C13.8683 21 13.9723 20.98 14.0713 20.9401C17.0547 19.7288 18.6163 16.2404 18.6163 13.4204C18.6163 9.08427 15.1894 4.3733 8.9668 0.154437Z" fill="#111111"></path></svg>